<?xml version="1.0" encoding="UTF-8"?>
<svg id="Layer_1" data-name="Layer 1" xmlns="http://www.w3.org/2000/svg" width="1243.29" height="219.48" viewBox="0 0 1243.29 219.48">
  <defs>
    <style>
      .cls-1 {
        fill: red;
      }

      .cls-2 {
        fill: #051c2c;
        stroke: #051c2c;
        stroke-miterlimit: 10;
        stroke-width: .41px;
      }
    </style>
  </defs>
  <path class="cls-1" d="m178.37,80.86h-57.76l15.29-34.65h57.76l-15.29,34.65Zm-105.32-23.1H15.29L0,92.41h57.76l15.29-34.65ZM318.01,0h-57.76l-15.29,34.65h57.76L318.01,0Zm-178.03,115.51h-57.76l-15.29,34.65h57.76l15.29-34.65ZM1202.1,0H352.66l-35.67,80.86h-80.86l-30.58,69.31h80.86l-30.58,69.31h887.32c15.35,0,29.25-9.06,35.44-23.1h0l61.16-138.62h0c12-27.2-7.92-57.76-37.65-57.76ZM99.2,207.93h80.86l25.49-57.76h-80.86l-25.49,57.76Z"/>
  <g>
    <path class="cls-2" d="m505.86,167.45h23.1l-12.74,28.88h-57.76l76.44-173.27h57.76l-12.74,28.88h-23.1l-15.29,34.65h23.1l-12.74,28.88h-23.1l-22.93,51.98Zm-17.16-144.39l-50.48,103.96h-1.16l40.09-103.96h-40.43l-51.64,103.96h-1.16l41.24-103.96h-40.43l-53.34,173.27h40.43l57.42-103.96-40.09,103.96h40.43l99.54-173.27h-40.43Zm327.73,92.41l12.74-28.88h-23.1l15.29-34.65h23.1l12.74-28.88h-57.76l-76.44,173.27h57.76l12.74-28.88h-23.1l22.93-51.98h23.1Zm-68.63,11.55c-5.1,11.55-30.58,69.31-30.58,69.31h-34.66l28.79-65.26c.84-1.91-.56-4.05-2.64-4.05h-7.12l-30.58,69.31h-34.65l76.44-173.27h63.14c8.35,0,13.94,8.58,10.57,16.21l-23.42,53.09c-5.1,11.55-19.2,17.33-19.2,17.33,0,0,9,5.78,3.91,17.33Zm-17.09-39.82l13.78-31.21c.84-1.91-.56-4.05-2.64-4.05h-7.12l-17.84,40.43h5.9c3.43,0,6.54-2.03,7.93-5.17Zm-41.01-64.14l-59.11,173.27h-34.65l15.65-38.37h-8.67l-18.53,38.37h-34.66l93.77-173.27h46.2Zm-37.24,34.65h-1.16l-34.46,71.36h6.51l29.1-71.36Z"/>
    <path class="cls-2" d="m912.94,97.71h66.78s15.33-34.75,15.33-34.75h-66.78s-15.33,34.75-15.33,34.75Zm22.46-24.06h43.11s-5.81,13.21-5.81,13.21h-43.11s5.81-13.21,5.81-13.21Zm283.15-42.71c-3.7-4.99-9.49-7.86-15.91-7.86h-134.43c-5.58,0-10.89,1.78-15.11,5.06-3.59-3.28-8.27-5.07-13.38-5.07l-134.32-.02c-9.59,0-18.19,5.4-21.87,13.78l-31.46,71.26c-2.3,5.21-1.79,11.14,1.36,15.87,3.07,4.62,8.22,7.38,13.77,7.38h85.86s-6.15,13.95-6.15,13.95h-43.1s4.11-9.35,4.11-9.35h-68.17s-14.14,32.08-14.14,32.08c-2.88,6.51-2.03,13.83,2.23,19.59,4.08,5.51,10.48,8.66,17.57,8.66l131.36.02c5.45,0,10.63-1.73,14.78-4.9,3.37,3.14,7.82,4.91,12.47,4.91l135.77.02c9.53,0,18.04-5.36,21.71-13.66l59.07-133.83c2.62-5.94,1.86-12.64-2.04-17.89Zm-230.03,147.43c-1.94,4.4-6.55,7.23-11.74,7.23l-131.35-.02c-3.59,0-6.79-1.54-8.8-4.25-2.01-2.7-2.39-6-1.05-9.03l11.3-25.66h44.5s-4.12,9.35-4.12,9.35l66.77.02,15.61-35.34-102.43-.02c-4.13,0-6.89-4.41-5.18-8.29l31.46-71.26c1.96-4.47,6.65-7.35,11.92-7.35l134.32.02c2.88,0,5.45,1.24,7.06,3.42,1.61,2.17,1.92,4.82.85,7.25l-59.12,133.93Zm30.56-42.4l27.5-62.3h94.81s-4.3,9.71-4.3,9.71h-70.38s-21.48,47.99-21.48,47.99h70.37s-6.27,13.94-6.27,13.94h-42.82s4.37-9.34,4.37-9.34h-51.81Zm191.54-91.41l-59.07,133.83c-1.94,4.4-6.54,7.23-11.74,7.23l-135.77-.02c-5.44,0-9.06-5.8-6.8-10.92l12.36-28.02h44.34s-4.36,9.35-4.36,9.35h66.85s15.88-35.32,15.88-35.32h-70.4s11.92-26.63,11.92-26.63h70.41s13.75-31.08,13.75-31.08l-111.5-.02,9.67-21.76c2-4.52,6.74-7.43,12.07-7.43l134.43.02c2.9,0,5.51,1.25,7.13,3.45,1.62,2.2,1.94,4.87.85,7.33Z"/>
  </g>
</svg>